<svg id="Layer_1" data-name="Layer 1" xmlns="http://www.w3.org/2000/svg" viewBox="0 0 638 110.03"><defs><style>.cls-1{fill:#0f0f0e;}.cls-1,.cls-2{fill-rule:evenodd;}</style></defs><title>Tupperware Logo Vector</title><polygon class="cls-1" points="61.39 13.22 0 13.22 0 31.64 20.78 31.64 20.78 92.56 41.56 92.56 41.56 31.64 61.39 31.64 61.39 13.22 61.39 13.22"/><path class="cls-1" d="M300.48,476.62H281.12v32.59c0,10.86-6.14,13.69-10.39,13.69-6.14,0-9.45-2.83-9.45-10.86V476.62H242.39V513c0,16,4.72,26,21.72,26,6.62,0,14.17-3.78,17.48-9.92h.47v8.5h18.42V476.62Z" transform="translate(-181 -444.98)"/><path class="cls-1" d="M337.31,489.85c8.5,0,11.34,9,11.34,16.53,0,8-2.84,17.47-11.34,17.47S326,516.76,326,506.38c0-12.76,6.14-16.53,11.33-16.53ZM307.56,555h18.89V530.93h0a20.41,20.41,0,0,0,17,8C360,539,368,524.32,368,508.26c0-17-8-33.53-26-33.53a17.87,17.87,0,0,0-16.06,9h-.47v-7.09H307.56V555Z" transform="translate(-181 -444.98)"/><path class="cls-1" d="M402,489.85c8.5,0,11.33,9,11.33,16.53,0,8-2.83,17.47-11.33,17.47-9,0-11.81-7.09-11.81-17.47,0-12.76,6.62-16.53,11.81-16.53ZM371.79,555h19.36V530.93h0c3.78,5.2,9.44,8,16.53,8,16.52,0,24.55-14.64,24.55-30.7,0-17-7.55-33.53-26-33.53-6.61,0-12.28,3.31-16.06,9h0v-7.09H371.79V555Z" transform="translate(-181 -444.98)"/><path class="cls-1" d="M454.9,500.71c1-7.56,5.67-12.28,12.28-12.28s11.33,5.67,11.33,12.28Zm43,11.33c.94-20.78-9.92-37.31-30.7-37.31-17,0-31.17,13.7-31.17,32.12,0,20.3,12.75,32.11,31.64,32.11,13.22,0,25.5-6.14,29.28-19.83H479c-1.89,4.25-6.62,6.61-10.87,6.61-8,0-12.75-5.67-13.22-13.7Z" transform="translate(-181 -444.98)"/><path class="cls-1" d="M502.12,537.54H521V508.26c0-7.55,4.73-14.16,14.17-14.16h5.67v-18a6,6,0,0,0-2.83-.47c-8,0-14.64,3.78-17.48,11.81h0V476.62H502.12v60.92Z" transform="translate(-181 -444.98)"/><polygon class="cls-1" points="456.19 31.64 436.35 31.64 426.91 70.84 426.91 70.84 418.41 31.64 399.99 31.64 391.96 70.84 391.49 70.84 382.04 31.64 362.68 31.64 380.63 92.56 399.99 92.56 408.96 51.95 409.44 51.95 418.41 92.56 437.77 92.56 456.19 31.64 456.19 31.64"/><path class="cls-1" d="M652.77,520.07c0-5.19,3.78-7.08,8-8s9-1.41,11.81-3.3c.47,12.75-2.84,17.94-11.81,17.94-4.25,0-8-1.89-8-6.61Zm1.42-24.56c.94-5.19,4.25-7.55,9.44-7.55,3.78,0,9,1.41,9,6.14,0,3.77-1.42,4.72-4.73,5.66-13.22,2.84-34,.95-34,20.78,0,12.75,8.5,18.42,19.84,18.42,7.08,0,14.16-1.89,19.36-7.56v6.14H691V495c0-17-13.22-20.31-27.39-20.31A39.17,39.17,0,0,0,645.21,479c-5.19,3.3-8.5,8.5-9,16.52Z" transform="translate(-181 -444.98)"/><path class="cls-1" d="M756.19,500.71c1.42-7.56,5.67-12.28,12.75-12.28,6.14,0,10.86,5.67,11.34,12.28Zm43,11.33c.94-20.78-9.45-37.31-30.23-37.31-17.47,0-31.64,13.7-31.64,32.12,0,20.3,12.75,32.11,32.11,32.11,12.76,0,25.51-6.14,28.81-19.83H780.28c-1.89,4.25-6.14,6.61-10.87,6.61-8,0-12.75-5.67-13.22-13.7Z" transform="translate(-181 -444.98)"/><path class="cls-1" d="M698.11,537.54H717v-28.8c0-7.56,4.72-14.64,14.16-14.64h6.14v-18a9.25,9.25,0,0,0-3.3-.47c-8,0-14.64,3.78-17.48,11.81h0V476.62H698.11v60.92Z" transform="translate(-181 -444.98)"/><path class="cls-1" d="M797.28,469.07h2.36V462h2.83l4.25,7.09h2.83l-4.72-7.56a4,4,0,0,0,4.25-4.25c0-2.83-1.89-4.72-5.66-4.72h-6.14v16.53Zm2.36-14.17h3.3c1.89,0,3.31,0,3.31,2.36s-1.89,2.36-3.78,2.36h-2.83V454.9Z" transform="translate(-181 -444.98)"/><path class="cls-2" d="M787.36,460.57a15.82,15.82,0,0,1,31.64,0,15.82,15.82,0,1,1-31.64,0Zm15.58,14.16c7.56,0,13.7-6.61,13.7-14.16a13.7,13.7,0,1,0-27.39,0c0,7.55,6.14,14.16,13.69,14.16Z" transform="translate(-181 -444.98)"/></svg>